<svg xmlns="http://www.w3.org/2000/svg" version="1.1" xmlns:xlink="http://www.w3.org/1999/xlink" xmlns:svgjs="http://svgjs.dev/svgjs" viewBox="0 0 2400 800" opacity="0.76"><defs><linearGradient x1="50%" y1="0%" x2="50%" y2="100%" id="sssurf-grad"><stop stop-color="hsla(224, 87%, 15%, 1.00)" stop-opacity="1" offset="0%"></stop><stop stop-color="hsl(0, 73%, 55%)" stop-opacity="1" offset="100%"></stop></linearGradient></defs><g fill="url(#sssurf-grad)" transform="matrix(1,0,0,1,9.6998291015625,173.27536392211914)"><path d="M-10,10C30.544871794871796,28.958333333333332,105.60897435897436,114.33333333333333,184.6153846153846,101C263.62179487179486,87.66666666666667,292.3076923076923,-44.625,369.2307692307692,-54C446.15384615384613,-63.375,476.9230769230769,49.958333333333336,553.8461538461538,56C630.7692307692307,62.041666666666664,661.5384615384615,-24.583333333333332,738.4615384615385,-25C815.3846153846154,-25.416666666666668,846.1538461538462,52.541666666666664,923.0769230769231,54C1000,55.458333333333336,1030.7692307692307,-28.625,1107.6923076923076,-18C1184.6153846153845,-7.375,1215.3846153846155,108.95833333333333,1292.3076923076924,105C1369.2307692307693,101.04166666666667,1400,-36.166666666666664,1476.923076923077,-37C1553.8461538461538,-37.833333333333336,1584.6153846153845,94.125,1661.5384615384614,101C1738.4615384615383,107.875,1769.2307692307693,7.458333333333332,1846.1538461538462,-4C1923.076923076923,-15.458333333333332,1953.8461538461538,42.25,2030.7692307692307,46C2107.6923076923076,49.75,2138.461538461538,9.833333333333332,2215.3846153846152,14C2292.3076923076924,18.166666666666668,2309.455128205128,-14.416666666666657,2400,66C2490.544871794872,146.41666666666666,3254.1666666666665,226.25,2650,400C2045.8333333333335,573.75,156.25,795.8333333333334,-500,900" transform="matrix(1,0,0,1,0,68)" opacity="0.05"></path><path d="M-10,10C30.544871794871796,28.958333333333332,105.60897435897436,114.33333333333333,184.6153846153846,101C263.62179487179486,87.66666666666667,292.3076923076923,-44.625,369.2307692307692,-54C446.15384615384613,-63.375,476.9230769230769,49.958333333333336,553.8461538461538,56C630.7692307692307,62.041666666666664,661.5384615384615,-24.583333333333332,738.4615384615385,-25C815.3846153846154,-25.416666666666668,846.1538461538462,52.541666666666664,923.0769230769231,54C1000,55.458333333333336,1030.7692307692307,-28.625,1107.6923076923076,-18C1184.6153846153845,-7.375,1215.3846153846155,108.95833333333333,1292.3076923076924,105C1369.2307692307693,101.04166666666667,1400,-36.166666666666664,1476.923076923077,-37C1553.8461538461538,-37.833333333333336,1584.6153846153845,94.125,1661.5384615384614,101C1738.4615384615383,107.875,1769.2307692307693,7.458333333333332,1846.1538461538462,-4C1923.076923076923,-15.458333333333332,1953.8461538461538,42.25,2030.7692307692307,46C2107.6923076923076,49.75,2138.461538461538,9.833333333333332,2215.3846153846152,14C2292.3076923076924,18.166666666666668,2309.455128205128,-14.416666666666657,2400,66C2490.544871794872,146.41666666666666,3254.1666666666665,226.25,2650,400C2045.8333333333335,573.75,156.25,795.8333333333334,-500,900" transform="matrix(1,0,0,1,0,136)" opacity="0.29"></path><path d="M-10,10C30.544871794871796,28.958333333333332,105.60897435897436,114.33333333333333,184.6153846153846,101C263.62179487179486,87.66666666666667,292.3076923076923,-44.625,369.2307692307692,-54C446.15384615384613,-63.375,476.9230769230769,49.958333333333336,553.8461538461538,56C630.7692307692307,62.041666666666664,661.5384615384615,-24.583333333333332,738.4615384615385,-25C815.3846153846154,-25.416666666666668,846.1538461538462,52.541666666666664,923.0769230769231,54C1000,55.458333333333336,1030.7692307692307,-28.625,1107.6923076923076,-18C1184.6153846153845,-7.375,1215.3846153846155,108.95833333333333,1292.3076923076924,105C1369.2307692307693,101.04166666666667,1400,-36.166666666666664,1476.923076923077,-37C1553.8461538461538,-37.833333333333336,1584.6153846153845,94.125,1661.5384615384614,101C1738.4615384615383,107.875,1769.2307692307693,7.458333333333332,1846.1538461538462,-4C1923.076923076923,-15.458333333333332,1953.8461538461538,42.25,2030.7692307692307,46C2107.6923076923076,49.75,2138.461538461538,9.833333333333332,2215.3846153846152,14C2292.3076923076924,18.166666666666668,2309.455128205128,-14.416666666666657,2400,66C2490.544871794872,146.41666666666666,3254.1666666666665,226.25,2650,400C2045.8333333333335,573.75,156.25,795.8333333333334,-500,900" transform="matrix(1,0,0,1,0,204)" opacity="0.53"></path><path d="M-10,10C30.544871794871796,28.958333333333332,105.60897435897436,114.33333333333333,184.6153846153846,101C263.62179487179486,87.66666666666667,292.3076923076923,-44.625,369.2307692307692,-54C446.15384615384613,-63.375,476.9230769230769,49.958333333333336,553.8461538461538,56C630.7692307692307,62.041666666666664,661.5384615384615,-24.583333333333332,738.4615384615385,-25C815.3846153846154,-25.416666666666668,846.1538461538462,52.541666666666664,923.0769230769231,54C1000,55.458333333333336,1030.7692307692307,-28.625,1107.6923076923076,-18C1184.6153846153845,-7.375,1215.3846153846155,108.95833333333333,1292.3076923076924,105C1369.2307692307693,101.04166666666667,1400,-36.166666666666664,1476.923076923077,-37C1553.8461538461538,-37.833333333333336,1584.6153846153845,94.125,1661.5384615384614,101C1738.4615384615383,107.875,1769.2307692307693,7.458333333333332,1846.1538461538462,-4C1923.076923076923,-15.458333333333332,1953.8461538461538,42.25,2030.7692307692307,46C2107.6923076923076,49.75,2138.461538461538,9.833333333333332,2215.3846153846152,14C2292.3076923076924,18.166666666666668,2309.455128205128,-14.416666666666657,2400,66C2490.544871794872,146.41666666666666,3254.1666666666665,226.25,2650,400C2045.8333333333335,573.75,156.25,795.8333333333334,-500,900" transform="matrix(1,0,0,1,0,272)" opacity="0.76"></path><path d="M-10,10C30.544871794871796,28.958333333333332,105.60897435897436,114.33333333333333,184.6153846153846,101C263.62179487179486,87.66666666666667,292.3076923076923,-44.625,369.2307692307692,-54C446.15384615384613,-63.375,476.9230769230769,49.958333333333336,553.8461538461538,56C630.7692307692307,62.041666666666664,661.5384615384615,-24.583333333333332,738.4615384615385,-25C815.3846153846154,-25.416666666666668,846.1538461538462,52.541666666666664,923.0769230769231,54C1000,55.458333333333336,1030.7692307692307,-28.625,1107.6923076923076,-18C1184.6153846153845,-7.375,1215.3846153846155,108.95833333333333,1292.3076923076924,105C1369.2307692307693,101.04166666666667,1400,-36.166666666666664,1476.923076923077,-37C1553.8461538461538,-37.833333333333336,1584.6153846153845,94.125,1661.5384615384614,101C1738.4615384615383,107.875,1769.2307692307693,7.458333333333332,1846.1538461538462,-4C1923.076923076923,-15.458333333333332,1953.8461538461538,42.25,2030.7692307692307,46C2107.6923076923076,49.75,2138.461538461538,9.833333333333332,2215.3846153846152,14C2292.3076923076924,18.166666666666668,2309.455128205128,-14.416666666666657,2400,66C2490.544871794872,146.41666666666666,3254.1666666666665,226.25,2650,400C2045.8333333333335,573.75,156.25,795.8333333333334,-500,900" transform="matrix(1,0,0,1,0,340)" opacity="1.00"></path></g></svg>